<svg xmlns="http://www.w3.org/2000/svg" version="1.2" viewBox="853.96 960.6 201.04 125.39">
	<title>50% copy</title>
	<defs>
		<linearGradient id="g1" x1="1028" y1="1066.7" x2="1028" y2="1034.8" gradientUnits="userSpaceOnUse">
			<stop offset="0" stop-color="#fffeff"/>
			<stop offset="1" stop-color="#000000"/>
		</linearGradient>
		<linearGradient id="g2" x1="1020.3" y1="1074.9" x2="1020.3" y2="1025.5" gradientUnits="userSpaceOnUse">
			<stop offset="0" stop-color="#fffeff"/>
			<stop offset="1" stop-color="#000000"/>
		</linearGradient>
		<linearGradient id="g3" x1="1044.6" y1="1080.5" x2="1044.6" y2="1021.2" gradientUnits="userSpaceOnUse">
			<stop offset="0" stop-color="#2f2f30"/>
			<stop offset="1" stop-color="#b9b9b9"/>
		</linearGradient>
		<linearGradient id="g4" x1="1007.7" y1="1078.9" x2="1007.7" y2="981.8" gradientUnits="userSpaceOnUse">
			<stop offset="0" stop-color="#000000"/>
			<stop offset="1" stop-color="#fffeff"/>
		</linearGradient>
		<linearGradient id="g5" x1="1028.5" y1="1088.9" x2="1028.5" y2="972.4" gradientUnits="userSpaceOnUse">
			<stop offset="0" stop-color="#2f2f30"/>
			<stop offset="1" stop-color="#b9b9b9"/>
		</linearGradient>
		<linearGradient id="g6" x1="997.7" y1="1023.6" x2="997.7" y2="988.7" gradientUnits="userSpaceOnUse">
			<stop offset="0" stop-color="#fffeff"/>
			<stop offset="1" stop-color="#000000"/>
		</linearGradient>
		<linearGradient id="g7" x1="992.6" y1="1033.1" x2="992.6" y2="979" gradientUnits="userSpaceOnUse">
			<stop offset="0" stop-color="#fffeff"/>
			<stop offset="1" stop-color="#000000"/>
		</linearGradient>
		<linearGradient id="g8" x1="1014.7" y1="1037.5" x2="1014.7" y2="974" gradientUnits="userSpaceOnUse">
			<stop offset="0" stop-color="#2f2f30"/>
			<stop offset="1" stop-color="#b9b9b9"/>
		</linearGradient>
		<linearGradient id="g9" x1="958.2" y1="1064.6" x2="958.2" y2="989.8" gradientUnits="userSpaceOnUse">
			<stop offset="0" stop-color="#fffeff"/>
			<stop offset="1" stop-color="#000000"/>
		</linearGradient>
		<linearGradient id="g10" x1="971.2" y1="1094.5" x2="971.2" y2="959.9" gradientUnits="userSpaceOnUse">
			<stop offset="0" stop-color="#2f2f30"/>
			<stop offset="1" stop-color="#b9b9b9"/>
		</linearGradient>
		<linearGradient id="g11" x1="941.8" y1="1082.4" x2="941.8" y2="971.9" gradientUnits="userSpaceOnUse">
			<stop offset="0" stop-color="#fffeff"/>
			<stop offset="1" stop-color="#000000"/>
		</linearGradient>
		<linearGradient id="g12" x1="908.7" y1="999.6" x2="908.7" y2="980.4" gradientUnits="userSpaceOnUse">
			<stop offset="0" stop-color="#fffeff"/>
			<stop offset="1" stop-color="#000000"/>
		</linearGradient>
		<linearGradient id="g13" x1="897.7" y1="1067.4" x2="897.7" y2="1014.1" gradientUnits="userSpaceOnUse">
			<stop offset="0" stop-color="#fffeff"/>
			<stop offset="1" stop-color="#000000"/>
		</linearGradient>
		<linearGradient id="g14" x1="878.1" y1="1028.2" x2="878.1" y2="1022.4" gradientUnits="userSpaceOnUse">
			<stop offset="0" stop-color="#fffeff"/>
			<stop offset="1" stop-color="#000000"/>
		</linearGradient>
		<linearGradient id="g15" x1="864.9" y1="1028" x2="864.9" y2="958.9" gradientUnits="userSpaceOnUse">
			<stop offset="0" stop-color="#fffeff"/>
			<stop offset="1" stop-color="#000000"/>
		</linearGradient>
		<linearGradient id="g16" x1="905.6" y1="1102.3" x2="905.6" y2="944.5" gradientUnits="userSpaceOnUse">
			<stop offset="0" stop-color="#2f2f30"/>
			<stop offset="1" stop-color="#b9b9b9"/>
		</linearGradient>
		<linearGradient id="g17" x1="872.8" y1="1084.7" x2="872.8" y2="1039.7" gradientUnits="userSpaceOnUse">
			<stop offset="0" stop-color="#fffeff"/>
			<stop offset="1" stop-color="#000000"/>
		</linearGradient>
	</defs>
	<style>
		.s0 { fill: url(#g1) } 
		.s1 { fill: url(#g2) } 
		.s2 { fill: url(#g3) } 
		.s3 { fill: url(#g4) } 
		.s4 { fill: url(#g5) } 
		.s5 { fill: url(#g6) } 
		.s6 { fill: url(#g7) } 
		.s7 { fill: url(#g8) } 
		.s8 { fill: url(#g9) } 
		.s9 { fill: url(#g10) } 
		.s10 { fill: url(#g11) } 
		.s11 { fill: url(#g12) } 
		.s12 { fill: #000000 } 
		.s13 { fill: url(#g13) } 
		.s14 { fill: url(#g14) } 
		.s15 { fill: url(#g15) } 
		.s16 { fill: url(#g16) } 
		.s17 { fill: url(#g17) } 
		.s18 { mix-blend-mode: screen;fill: #00fbff } 
	</style>
	<g id="50% copy">
		<g id="%">
			<g id="0">
				<path id="Shape 916" class="s0" d="m1046.8 1063.4q0 0 0 0 0 0.5 0 0.9 0 0.3-0.1 0.6 0 0 0 0.1 0 0 0 0 0 0 0 0 0 0.2 0 0.3-0.1 0.1-0.1 0.3 0 0 0 0 0 0 0 0.1 0 0-0.1 0.1 0 0.1-0.1 0.2 0 0.1 0 0.1 0 0.1-0.1 0.1 0 0 0 0 0 0 0 0.1-0.1 0.1-0.2 0.2-0.1 0-0.1 0 0 0-0.1 0.1 0 0-0.1 0-0.2 0.1-0.3 0.1-0.1 0-0.1 0 0 0 0 0 0 0 0 0 0 0 0 0 0 0 0 0 0 0 0 0 0 0-0.1 0 0 0 0 0 0 0 0 0 0 0 0 0 0 0 0 0-18.1-1.7-36.1-3.3 0 0 0 0 0.1 0 0.1 0 0 0 0 0 0 0 0 0 0.1 0 0.1 0 0.2 0 0.4-0.1 0.1 0 0.1 0 0.2-0.2 0.3-0.3 0-0.1 0.1-0.1 0.1-0.2 0.2-0.4 0 0 0 0 0.1-0.3 0.1-0.6 0 0 0 0 0.1-0.6 0.1-1.3 0-0.1 0-0.1 0-0.7 0-1.4l-0.1-19.1q0-0.7-0.1-1.5 0-0.7-0.2-1.4-0.1-0.6-0.4-1-0.3-0.4-0.8-0.4 0 0 0 0 0 0 0 0 0 0 0 0 0 0 0 0l35.8-0.9q0 0 0 0 0 0 0.1 0 0 0 0 0 0 0 0 0 0.5 0.1 0.8 0.5 0.3 0.5 0.4 1.2 0.2 0.7 0.2 1.6 0.1 0.9 0.1 1.7l0.3 22q0 0.4 0 0.8 0 0.4 0 0.7 0 0.1 0 0.1 0 0 0 0z"/>
				<path id="Shape 917" class="s1" d="m1042.2 1073.7l-36-4.3q-0.6-0.1-1.2-0.3-0.5-0.1-1-0.3-0.9-0.4-1.7-1.1-0.7-0.7-1.3-1.7-0.6-0.9-1.1-2.2-0.5-1.1-0.8-2.7-0.3-1.6-0.4-3.6-0.1-2-0.1-4.4-0.1-2.3-0.1-4.9 0-1.8 0-3.3 0-0.3 0-0.5 0-0.2 0-0.3 0-0.4 0-0.8 0.1-1.1 0.1-2.2 0-0.1 0-0.1 0-0.1 0-0.2 0.1-0.8 0.1-1.6 0.1-0.4 0.1-0.8 0-0.2 0-0.4 0-0.1 0.1-0.2 0.1-1.1 0.3-2.1 0-0.1 0-0.1 0-0.1 0-0.1 0.1-0.4 0.1-0.7 0.1-0.3 0.2-0.5 0 0 0-0.1 0 0 0-0.1 0.1-0.3 0.2-0.6 0.1-0.3 0.2-0.5 0.1-0.2 0.2-0.4 0.1-0.3 0.1-0.4 0.1-0.2 0.2-0.3 0 0 0 0 0-0.1 0-0.1 0.1-0.2 0.2-0.4 0.1 0 0.1-0.1 0.1-0.2 0.2-0.3 0.3-0.4 0.7-0.8 0 0 0 0 0.1-0.1 0.1-0.1 0.3-0.2 0.6-0.4c0.1-0.1 0.2-0.1 0.3-0.2 0.1 0 0.2-0.1 0.3-0.2 0.2-0.1 0.5-0.2 0.8-0.3 0.1 0 0.2-0.1 0.4-0.1q0.1-0.1 0.2-0.1 0.1 0 0.1 0 0.1 0 0.2-0.1 0.8-0.1 1.7-0.2l35.7-1.8q-0.9 0.1-1.7 0.2-0.2 0.1-0.4 0.1-0.7 0.2-1.4 0.5-0.1 0.1-0.2 0.2-0.6 0.3-1.1 0.8 0 0-0.1 0.1-0.5 0.6-0.9 1.3-0.2 0.3-0.4 0.6 0 0.1 0 0.1-0.3 0.5-0.5 1.2-0.2 0.7-0.4 1.4 0 0.1 0 0.1-0.2 0.7-0.3 1.5-0.2 1.2-0.3 2.6-0.1 0.3-0.1 0.6-0.1 1.3-0.2 2.8 0 0.2 0 0.3 0 1.7-0.1 3.5 0 0.4 0 0.9 0 1.8 0.1 3.8 0 3 0 5.7 0.1 2.7 0.3 5 0.1 2.4 0.4 4.2 0.3 1.9 0.8 3.2 0.6 1.4 1.2 2.5 0.6 1.1 1.4 1.9 0.8 0.8 1.8 1.3 1 0.4 2.3 0.6z"/>
				<path id="Shape 918" fill-rule="evenodd" class="s2" d="m1055 1055.5q0 2.7-0.2 4.9-0.1 2.2-0.4 3.8-0.2 1.6-0.5 2.6-0.5 1.6-1.3 2.9-0.7 1.3-1.7 2.3-1.1 0.9-2.5 1.5-1.4 0.6-3.3 0.8-2 0.2-3.4-0.1-1.5-0.4-2.5-1.2-1.1-0.8-1.9-2-0.8-1.3-1.5-3-0.5-1.3-0.8-3.2-0.3-1.8-0.4-4.1-0.2-2.4-0.3-5.1 0-2.7 0-5.7-0.1-3-0.1-5.6 0.1-2.6 0.2-4.8 0.2-2.2 0.4-3.9 0.3-1.8 0.8-3.2 0.5-1.6 1.3-2.6 0.8-1 1.8-1.6 1.1-0.6 2.5-0.8 1.4-0.2 3.2-0.1c1.3 0.1 2.4 0.2 3.4 0.4 0.9 0.2 1.7 0.4 2.4 0.8 0.7 0.5 1.2 1 1.8 1.7 0.5 0.7 1 1.5 1.5 2.6q0.5 1.1 0.8 2.7 0.3 1.5 0.4 3.6 0.2 2 0.2 4.6 0 2.7 0.1 5.9 0 3.2 0 5.9zm-8.5 9.5q-0.1 0.7-0.4 1.2-0.3 0.4-0.9 0.5-0.6 0-0.9-0.4-0.3-0.5-0.5-1.2-0.1-0.8-0.2-1.7 0-0.9 0-1.9l-0.3-21.7q0-0.9 0-1.7 0.1-0.9 0.2-1.6 0.1-0.8 0.4-1.2 0.3-0.5 0.8-0.5 0.5 0 0.8 0.5 0.3 0.4 0.5 1.2 0.1 0.7 0.2 1.6 0 0.8 0 1.7l0.4 22q0 0.8 0 1.6 0 0.8-0.1 1.6z"/>
			</g>
			<g id="/">
				<path id="Shape 921" class="s3" d="m1038.1 984.1l-26.4 92.4-34.3-5 25.5-80.4z"/>
				<path id="Shape 922" class="s4" d="m1045.7 985.7l-24.9 90.4-9.4 0.8 26.4-92.5z"/>
			</g>
			<g id="0">
				<path id="Shape 916 copy" class="s5" d="m1016.6 1019.1q0 0 0 0 0 0.4-0.1 0.9 0 0.3 0 0.7 0 0 0 0 0 0 0 0.1 0 0 0 0-0.1 0.1-0.1 0.3 0 0.1-0.1 0.2 0 0.1 0 0.1 0 0 0 0.1 0 0 0 0.1-0.1 0.1-0.1 0.2-0.1 0.1-0.1 0.1 0 0.1 0 0.1 0 0-0.1 0 0 0.1 0 0.1-0.1 0.1-0.2 0.2 0 0.1-0.1 0.1 0 0 0 0-0.1 0.1-0.2 0.1-0.1 0-0.3 0.1 0 0 0 0-0.1 0-0.1 0 0 0 0 0 0 0 0 0 0 0 0 0 0 0 0 0 0 0 0 0 0 0 0 0-0.1 0-0.1 0 0 0 0 0 0 0 0 0c-12-1.2-24 1.9-36.1 0.7q0.1 0 0.1 0 0 0 0 0 0 0 0 0 0 0 0.1 0 0 0 0 0 0.3 0 0.5-0.1 0 0 0 0 0.2-0.1 0.3-0.3 0.1-0.1 0.1-0.1 0.1-0.2 0.2-0.4 0 0 0-0.1 0.1-0.2 0.1-0.5 0-0.1 0.1-0.1 0-0.7 0.1-1.4 0 0 0-0.1 0-0.7-0.1-1.4l-0.1-20.4q0-0.7-0.1-1.6 0-0.8-0.2-1.4-0.1-0.7-0.4-1.1-0.3-0.5-0.7-0.5 0 0 0 0-0.1 0-0.1 0 0 0 0 0 0 0 0 0l35.9-5.1q0 0 0 0 0 0 0 0 0 0 0 0 0 0 0 0 0.5 0 0.8 0.5 0.3 0.4 0.4 1.2 0.2 0.8 0.3 1.7 0 0.9 0 1.9l0.3 23.3q0 0.4 0.1 0.9 0 0.4 0 0.8 0 0 0 0.1 0 0 0 0z"/>
				<path id="Shape 925" class="s6" d="m1016.1 1030.4l-34.4 1.4q-0.1 0-0.2 0-0.2 0-0.3 0-0.2 0-0.3 0-0.2 0-0.3 0-2.1 0-3.7-0.5-1.5-0.4-2.7-1.3-1.1-0.8-2-2.1-0.9-1.2-1.6-2.8-0.5-1.3-0.8-3-0.3-1.7-0.5-3.9-0.1-2.1-0.1-4.6-0.1-2.5-0.1-5.2 0-1.9 0.1-3.5 0-0.3 0-0.5 0-0.2 0-0.3 0-0.4 0-0.8 0-1.3 0.1-2.4 0-0.1 0-0.1 0-0.1 0-0.2 0.1-0.9 0.2-1.7 0-0.4 0-0.8 0.1-0.2 0.1-0.4 0-0.1 0-0.2 0.2-1.2 0.4-2.2 0-0.1 0-0.2 0 0 0-0.1 0.1-0.3 0.2-0.7 0.1-0.2 0.1-0.5 0 0 0.1-0.1 0 0 0 0 0.1-0.4 0.2-0.7 0.1-0.3 0.2-0.5 0.1-0.3 0.2-0.5 0.1-0.2 0.2-0.4 0.1-0.2 0.3-0.4 0 0 0.1-0.1 0 0 0-0.1 0 0 0 0 0 0 0.1-0.1 0.3-0.4 0.6-0.8 0.1 0 0.1-0.1 0.1 0 0.1 0 0.1-0.1 0.2-0.2 0.2-0.1 0.4-0.3 0.2-0.1 0.3-0.2 0.1-0.1 0.2-0.1 0.1 0 0.1-0.1 0.1 0 0.2-0.1 0.5-0.2 1-0.3l33.6-8.4q-0.7 0.2-1.3 0.5-0.2 0-0.3 0.1-0.4 0.3-0.8 0.7-0.2 0.1-0.3 0.2-0.5 0.5-0.9 1.1 0 0 0 0.1-0.4 0.7-0.8 1.6-0.3 0.6-0.5 1.4 0 0.1 0 0.1-0.2 0.7-0.3 1.5-0.3 1.3-0.4 2.7-0.1 0.4-0.1 0.7-0.2 1.4-0.2 3 0 0.1-0.1 0.3 0 1.8-0.1 3.7 0 0.5 0 0.9 0 2 0 4.1 0 3.2 0.1 6.1 0 2.9 0.2 5.4 0.2 2.5 0.5 4.5 0.3 2 0.9 3.5 0.8 1.9 1.7 3.3 1 1.5 2.2 2.5 1.2 1 2.9 1.5 1.7 0.5 3.9 0.6 0.2 0 0.3 0 0.2 0 0.4 0 0.1 0 0.3 0 0.1 0 0.3 0z"/>
				<path id="Shape 926" fill-rule="evenodd" class="s7" d="m1026.7 1012.2q-0.1 2.9-0.3 5.2-0.1 2.3-0.4 4-0.3 1.7-0.7 2.7-0.6 1.6-1.4 2.9-0.9 1.3-2.1 2.2-1.2 0.9-2.9 1.3-1.6 0.5-3.9 0.4-2.2-0.1-3.9-0.6-1.7-0.5-2.9-1.5-1.2-1-2.2-2.4-0.9-1.5-1.7-3.4-0.6-1.5-0.9-3.5-0.3-2-0.5-4.5-0.2-2.5-0.2-5.4-0.1-2.8-0.1-6 0-3.2 0.1-6 0-2.8 0.2-5.1 0.2-2.3 0.5-4.2 0.4-1.8 0.9-3.2 0.7-1.6 1.5-2.6 0.9-1 2.2-1.5 1.2-0.4 2.8-0.4 1.7-0.1 3.8 0.3c1.5 0.2 2.8 0.5 3.9 0.8 1.1 0.4 2 0.8 2.8 1.3 0.8 0.5 1.5 1.2 2.1 2 0.6 0.8 1.2 1.8 1.7 3q0.6 1.2 0.9 2.9 0.3 1.7 0.5 3.9 0.1 2.2 0.2 5 0 2.7 0 6.1 0.1 3.5 0 6.3zm-10 9c0 0.5-0.2 0.9-0.4 1.2-0.3 0.3-0.6 0.5-1.1 0.4q-0.6 0-1-0.5-0.4-0.5-0.6-1.3-0.1-0.9-0.2-1.9 0-0.9 0-1.9l-0.2-23.2q0-0.9 0-1.8 0.1-1 0.3-1.7 0.1-0.8 0.5-1.2 0.3-0.5 0.9-0.4 0.6 0.1 0.9 0.6 0.4 0.5 0.5 1.3 0.2 0.8 0.3 1.8 0 0.9 0 1.8l0.3 23.4c0 0.5 0 1.1 0 1.7 0 0.6-0.1 1.2-0.2 1.7z"/>
			</g>
		</g>
		<g id="0">
			<path id="Shape 931" class="s8" d="m976 1051.8q0 1-0.1 2.1 0 1.1 0 2.3-0.1 1.1-0.2 2.2-0.1 1.1-0.3 2.1-0.1 0.4-0.2 0.8-0.1 0.4-0.2 0.7-0.1 0.3-0.2 0.6-0.2 0.3-0.3 0.6-0.2 0.3-0.5 0.6-0.2 0.2-0.4 0.4-0.3 0.2-0.6 0.3-0.3 0.1-0.7 0.1 0 0 0 0 0 0-0.1 0 0 0 0 0 0 0-0.1 0 0 0 0 0 0 0-0.1 0 0 0 0 0-0.1 0-0.1 0l-31.1-3.6q0 0 0 0 0.1 0 0.1 0 0 0.1 0 0.1 0.1 0 0.1 0 0 0 0 0 0.1 0 0.1 0 0 0 0 0 0.1 0 0.1 0 0.3-0.1 0.6-0.1 0.2-0.1 0.5-0.3 0.2-0.1 0.4-0.3 0.2-0.2 0.4-0.5 0.2-0.2 0.3-0.5 0.1-0.2 0.2-0.5 0.1-0.3 0.2-0.6 0.1-0.3 0.2-0.7 0.2-0.8 0.3-1.8 0.1-0.9 0.1-1.9 0.1-0.9 0.1-1.9 0-0.9 0-1.8l0.2-43.5c0-1.2 0-2.3-0.1-3.3 0-1.1-0.1-2-0.3-2.9-0.1-0.8-0.4-1.5-0.9-2-0.4-0.5-1.1-0.9-1.9-0.9q-0.1-0.1-0.3-0.1-0.1 0-0.2 0-0.1 0.1-0.3 0.1-0.1 0-0.2 0l30.7-7.7q0.2-0.1 0.3-0.1 0.1 0 0.3 0 0.1 0 0.2 0 0.2 0 0.3 0c0.9 0.1 1.6 0.5 2.1 1.1 0.5 0.6 0.8 1.5 1.1 2.4 0.2 1 0.3 2.2 0.3 3.4 0 1.2 0 2.5 0 3.8z"/>
			<path id="Shape 932" fill-rule="evenodd" class="s9" d="m993.6 992.1q0.5 2.3 0.8 5.4 0.3 3.2 0.4 7.4 0.1 4.1 0.2 9.4 0 5.3 0 11.7c0 4.4 0.1 8.1 0.1 11.3 0 3.3-0.1 6.2-0.1 8.8-0.1 2.6-0.1 5-0.2 7.4-0.2 2.4-0.3 4.7-0.5 7.2-0.2 2.3-0.8 4.6-1.7 6.7-1 2.2-2.4 4.3-4.2 6.1-1.8 1.8-4 3.4-6.6 4.6-2.7 1.2-5.7 2.1-9.2 2.4-3.6 0.3-6.7-0.1-9.4-0.9-2.8-0.8-5.1-2.1-7.1-3.8-2-1.7-3.6-3.7-4.8-5.9-1.3-2.1-2.1-4.5-2.7-6.8-0.4-1.7-0.7-4-0.9-6.6-0.2-2.6-0.3-5.7-0.4-9.1 0-3.4 0-7.1 0-11 0-3.9 0-8.1 0-12.4 0.1-4.2 0.1-8.4 0.1-12.3 0.1-3.9 0.2-7.5 0.3-10.8 0.1-3.2 0.3-6.1 0.5-8.5 0.3-2.3 0.5-4.1 0.9-5.3 0.4-1.2 0.9-2.7 1.8-4.4 0.9-1.7 2.2-3.4 4-4.9 1.7-1.5 4-2.7 6.8-3.4 2.8-0.7 6.2-0.9 10.3-0.2 4.1 0.6 7.3 1.7 10 3 2.6 1.3 4.6 2.8 6.2 4.5 1.6 1.6 2.7 3.4 3.6 5.2 0.8 1.8 1.4 3.6 1.8 5.2zm-17.6 8.4c0-1.3 0-2.7 0-3.9-0.1-1.2-0.2-2.3-0.4-3.3-0.2-1-0.5-1.8-1-2.4-0.5-0.7-1.2-1-2.1-1.2-0.9-0.1-1.6 0.2-2.1 0.7-0.5 0.5-0.9 1.3-1.1 2.2-0.2 1-0.4 2.1-0.4 3.3-0.1 1.2-0.1 2.6-0.1 3.9l0.1 52.1c0 1.5 0 3 0 4.5 0.1 1.5 0.2 2.9 0.4 4.1 0.2 1.2 0.6 2.3 1.1 3 0.5 0.7 1.2 1.1 2.1 1 0.9 0 1.6-0.5 2.1-1.3 0.5-0.9 0.9-2 1.1-3.3 0.2-1.2 0.3-2.7 0.4-4.1 0-1.4 0-2.8 0-4.1l-0.1-51.2z"/>
			<path id="Shape 933" class="s10" d="m965.1 1079.8l-30.5-6c-2.2-0.4-4.1-1.1-5.8-2.1-1.7-0.9-3.1-2.1-4.3-3.4-1.2-1.3-2.3-2.8-3.1-4.3-0.8-1.5-1.3-3.1-1.8-4.7-0.3-1.4-0.6-3.3-0.7-5.5-0.2-2.3-0.3-4.8-0.3-7.7-0.1-2.8 0-6 0-9.3 0-3.3 0.1-6.7 0.1-10.3 0-3.5 0.1-6.8 0.1-10 0.1-3.1 0.2-6.1 0.3-8.8 0.1-2.7 0.2-5.1 0.4-7.1 0.2-2 0.5-3.6 0.8-4.7q0-0.1 0-0.2 0-0.1 0-0.1 0.1-0.1 0.1-0.2 0 0 0-0.1 0.2-0.5 0.4-1.2 0.3-0.7 0.7-1.4 0.3-0.7 0.8-1.5 0.5-0.8 1.1-1.5 0.5-0.8 1.3-1.5 0.7-0.7 1.5-1.3 0.9-0.6 1.9-1.2 1.1-0.5 2.3-0.9l29.6-10.3q-1.4 0.5-2.5 1.1-1.1 0.6-2.1 1.4-1 0.7-1.7 1.5-0.8 0.8-1.5 1.7-0.7 0.9-1.2 1.8-0.5 0.9-0.9 1.7-0.4 0.9-0.7 1.7-0.3 0.7-0.4 1.4-0.1 0-0.1 0.1 0 0.1 0 0.2-0.1 0.1-0.1 0.2 0 0.1 0 0.1c-0.3 1.4-0.6 3.3-0.8 5.7-0.2 2.3-0.4 5.2-0.5 8.4-0.1 3.1-0.2 6.7-0.2 10.4-0.1 3.8-0.1 7.7-0.1 11.8 0 4.3 0 8.4-0.1 12.4 0 3.9 0 7.6 0.1 11 0 3.4 0.1 6.4 0.3 9.1 0.2 2.6 0.5 4.9 0.9 6.6 0.5 1.9 1.2 3.8 2.1 5.6 0.9 1.8 2 3.5 3.4 5 1.4 1.6 3 2.9 4.8 4 1.9 1.1 4 1.9 6.4 2.4z"/>
		</g>
		<g id="5">
			<path id="Shape 936" class="s11" d="m938.3 987.8l-27.4 8.6-31.7-3 22.9-9.8z"/>
			<path id="Shape 937" class="s12" d="m901.8 1000.9l-23 6.8q0.6-0.5 1.2-0.9 0.6-0.5 1.3-0.9 0.6-0.3 1.3-0.6 0.7-0.3 1.4-0.5l23.7-7.4q-0.8 0.3-1.6 0.6-0.8 0.4-1.5 0.8-0.8 0.4-1.5 1-0.7 0.5-1.3 1.1z"/>
			<path id="Shape 938" class="s13" d="m912.8 1023.9c0 0.4-0.1 2.5-0.1 5.4 0 3-0.1 6.8-0.2 10.8 0 3.9-0.1 8-0.1 11.3-0.1 3.4-0.1 6.1-0.1 7.3q0 0.5 0 0.9-0.1 0.5-0.1 1-0.1 0.5-0.2 0.9 0 0.5-0.2 0.9-0.1 0.4-0.2 0.8-0.1 0.5-0.3 0.8-0.2 0.4-0.4 0.8-0.2 0.3-0.4 0.6-0.3 0.5-0.7 0.8-0.3 0.4-0.8 0.6-0.4 0.3-0.9 0.4-0.4 0.2-0.9 0.2-0.1 0-0.1 0 0 0 0 0-0.1 0-0.1 0 0 0 0 0-0.1 0-0.2 0 0 0-0.1 0-0.1 0-0.1 0-0.1-0.1-0.2-0.1l-23.8-4.5q0.1 0 0.1 0 0.1 0 0.1 0 0.1 0.1 0.2 0.1 0 0 0.1 0 0 0 0 0 0 0 0.1 0 0 0 0 0 0 0 0 0 0.5-0.1 0.9-0.2 0.4-0.1 0.8-0.3 0.4-0.2 0.7-0.5 0.3-0.3 0.6-0.6 0.2-0.3 0.3-0.6 0.2-0.3 0.4-0.6 0.1-0.3 0.2-0.6 0.2-0.4 0.2-0.8 0.1-0.3 0.2-0.7 0.1-0.3 0.1-0.7 0.1-0.4 0.1-0.8 0-0.4 0-0.8c0.1-1 0.1-3.2 0.1-6 0.1-2.8 0.2-6.2 0.2-9.5 0.1-3.3 0.1-6.5 0.2-8.9 0-2.5 0.1-4.2 0.1-4.5 0-0.9 0-1.8-0.1-2.8-0.1-0.9-0.3-1.8-0.6-2.5-0.4-0.8-0.8-1.5-1.4-2-0.7-0.5-1.5-0.8-2.5-0.8q-0.1 0-0.2 0-0.1 0-0.2 0-0.1 0-0.3 0-0.1 0-0.2 0l23.7-4.5q0.1-0.1 0.2-0.1 0.2 0 0.3 0 0.1 0 0.2 0 0.2 0 0.3 0c1.2 0.1 2.1 0.4 2.8 1 0.7 0.6 1.3 1.5 1.6 2.4 0.4 0.9 0.6 2 0.7 3.1 0.2 1.1 0.2 2.3 0.2 3.3z"/>
			<path id="Shape 939" class="s14" d="m901.9 1024.4l-23.1 2.8-24.4-0.7 19.1-3.2z"/>
			<path id="Shape 940" class="s15" d="m873.9 1023.2l-19.1 3.1 1.1-51.5 19.1-14.2z"/>
			<path id="Shape 941" class="s16" d="m938 970.6l-0.1 17.4-36.1-4.3-0.2 17.6q1.6-1.5 3.4-2.4 1.7-0.9 3.8-1.4 1.9-0.5 4.1-0.5 2.2-0.1 4.5 0.1 2.7 0.3 4.9 0.9 2.3 0.6 4.2 1.6 1.9 1 3.5 2.3 1.6 1.4 2.8 3.1 1.3 1.7 2.2 3.6 1 1.9 1.6 4.2 0.6 2.3 0.9 5.1 0.3 2.7 0.3 6.1l-0.1 21.7c0 2-0.1 4.1-0.1 6.2-0.1 2.2-0.2 4.3-0.4 6.5-0.3 2.2-0.6 4.3-1.1 6.3-0.5 2.1-1.2 4-2.1 5.7-0.9 1.7-2 3.4-3.5 5-1.4 1.7-3.2 3.3-5.3 4.7-2.1 1.4-4.6 2.7-7.5 3.7-2.8 1-6.1 1.7-9.8 2q-5.6 0.5-10.4-0.3-4.9-0.8-8.8-2.7-4-1.9-7-4.8c-2-1.9-3.7-4.1-4.9-6.5-1.3-2.4-2.1-5.3-2.7-8.5-0.5-3.2-0.8-6.6-0.9-9.7-0.1-3.2 0-6 0-8.1 0.1-2.2 0.2-3.6 0.3-3.9l28.8 0.1c0 0.2 0 1.2 0 2.5 0 1.4-0.1 3.3-0.1 5.2 0 1.9 0 3.9-0.1 5.7 0 1.7 0 3.2 0.1 4.1 0 0.9 0.1 1.9 0.4 2.9 0.2 1 0.5 2 1 2.8 0.4 0.9 0.9 1.6 1.6 2.1 0.6 0.5 1.3 0.8 2.2 0.8q1.2-0.1 2.2-0.8 0.9-0.7 1.6-1.9 0.6-1.2 1-2.7 0.3-1.6 0.3-3.3c0-1.2 0.1-3.9 0.1-7.3 0.1-3.3 0.1-7.4 0.2-11.4 0-3.9 0.1-7.7 0.1-10.7 0.1-2.9 0.1-5 0.1-5.4 0-1 0-2.2-0.1-3.3-0.2-1.1-0.4-2.2-0.8-3.1-0.3-1-0.8-1.8-1.6-2.4-0.7-0.6-1.6-0.9-2.8-1-1.1-0.1-2.1 0.3-2.8 1-0.7 0.7-1.2 1.6-1.5 2.7-0.4 1.1-0.6 2.3-0.7 3.4-0.2 1.2-0.2 2.3-0.2 3.2l-28.5-1.1 1.1-62.6z"/>
			<path id="Shape 942" class="s17" d="m891.6 1083.6l-21.8-7.6q-2.2-0.8-4.1-1.8-1.9-1.1-3.5-2.4-1.6-1.4-2.9-2.9-1.3-1.6-2.3-3.4c-1.1-1.9-1.8-4.4-2.2-7-0.5-2.6-0.7-5.4-0.8-7.9-0.1-2.6 0-4.9 0.1-6.7 0-1.7 0.1-2.9 0.2-3.1h19c0 0.3-0.1 1.7-0.2 3.8-0.1 2.2-0.2 5 0 8.2 0.1 3.1 0.3 6.5 0.9 9.7 0.5 3.2 1.4 6.1 2.6 8.5q1.1 2.1 2.7 4 1.5 1.9 3.4 3.6 1.9 1.6 4.1 2.8 2.2 1.3 4.8 2.2z"/>
		</g>
		<path id="Shape 943" class="s18" d="m1045.1 1035q0.3 0.1 0.5 0.4 0.3 0.5 0.4 1.2 0.2 0.7 0.2 1.6 0.1 0.9 0.1 1.7l0.3 22q0 0.8 0 1.6 0 0.8-0.1 1.6-0.1 0.7-0.3 1.2-0.3 0.4-0.9 0.5-0.1 0-0.1 0-0.5 0-0.9-0.4l-0.1-0.3q0.2 0.1 0.4 0.1 0 0 0.1 0 0.6-0.1 0.9-0.6 0.3-0.4 0.4-1.2 0.1-0.7 0.1-1.5 0-0.9-0.1-1.7l-0.3-21.9q0-0.9 0-1.7-0.1-0.9-0.3-1.6-0.1-0.6-0.3-1m-2.4-8.2q0.6 0 1.2 0c1.3 0.1 2.4 0.2 3.3 0.4 1 0.1 1.8 0.4 2.5 0.8q0.8 0.5 1.5 1.4-0.5-0.4-1-0.7c-0.6-0.4-1.4-0.7-2.4-0.9-0.9-0.2-2-0.3-3.3-0.4q-0.6 0-1.2 0-1.1 0-2.1 0.1-1.4 0.2-2.4 0.8-1.1 0.6-1.8 1.6-0.8 1-1.3 2.6-0.5 1.4-0.8 3.2-0.3 1.8-0.4 4-0.2 2.2-0.2 4.8 0 2.6 0 5.5 0.1 3 0.1 5.7 0.1 2.7 0.2 5.1 0.2 2.3 0.5 4.1 0.3 1.9 0.8 3.2 0.7 1.7 1.5 3 0.3 0.4 0.6 0.8-0.7-0.6-1.2-1.5-0.8-1.2-1.5-2.9-0.5-1.3-0.8-3.2-0.3-1.9-0.5-4.2-0.1-2.3-0.2-5 0-2.7-0.1-5.7 0-3 0-5.6 0.1-2.6 0.2-4.8 0.1-2.2 0.4-4 0.3-1.8 0.8-3.1 0.5-1.6 1.3-2.6 0.7-1.1 1.8-1.6 1-0.6 2.4-0.8 1-0.1 2.1-0.1m-5-42.7l7.9 1.2-0.1 0.5-7.2-1.1-26.2 91.7-0.8 0.1 26.4-92.4m-27.2-4q1.6 0 3.6 0.4c1.6 0.2 2.8 0.5 3.9 0.8 1.1 0.3 2 0.7 2.8 1.3 0.6 0.4 1.1 0.9 1.6 1.4q-0.4-0.4-1-0.8c-0.8-0.5-1.7-0.9-2.8-1.3-1.1-0.3-2.4-0.6-3.9-0.8q-2-0.3-3.6-0.3-0.1 0-0.2 0-1.6 0-2.8 0.4-1.2 0.5-2.1 1.5-0.9 1-1.6 2.6-0.5 1.4-0.9 3.2-0.3 1.9-0.5 4.2-0.2 2.3-0.2 5.1-0.1 2.8 0 6 0 3.2 0 6 0.1 2.9 0.2 5.4 0.2 2.5 0.5 4.5 0.4 2 0.9 3.5 0.8 1.9 1.8 3.4 0.3 0.5 0.8 1-0.8-0.7-1.4-1.7-1-1.4-1.7-3.3-0.6-1.5-1-3.5-0.3-2-0.5-4.5-0.1-2.5-0.2-5.4 0-2.9 0-6.1-0.1-3.2 0-5.9 0-2.8 0.2-5.1 0.2-2.3 0.6-4.2 0.3-1.9 0.9-3.3 0.6-1.6 1.5-2.6 0.9-0.9 2.1-1.4 1.2-0.5 2.9-0.5 0 0 0.1 0m4.9 9.2q0.3 0.1 0.5 0.4 0.4 0.5 0.6 1.3 0.1 0.8 0.2 1.8 0.1 0.9 0.1 1.8l0.2 23.4c0 0.5 0 1.1 0 1.7 0 0.6 0 1.2-0.1 1.7-0.1 0.5-0.3 0.9-0.5 1.2q-0.3 0.4-0.9 0.4-0.1 0-0.1 0-0.7 0-1.1-0.5l-0.1-0.3q0.2 0.2 0.6 0.2 0 0 0.1 0 0.6 0 0.9-0.4c0.3-0.3 0.4-0.8 0.5-1.3 0.1-0.5 0.1-1 0.1-1.6 0-0.6 0-1.2 0-1.8l-0.2-23.3q0-0.9-0.1-1.9-0.1-0.9-0.2-1.7-0.2-0.7-0.5-1.1m-41 1.2q0.3 0.2 0.5 0.5c0.5 0.6 0.9 1.4 1.1 2.4 0.2 1 0.3 2.1 0.3 3.4 0.1 1.2 0.1 2.5 0.1 3.8l0.1 51.3c0 1.2 0 2.6-0.1 4.1 0 1.4-0.1 2.8-0.4 4.1-0.2 1.3-0.5 2.4-1 3.2-0.5 0.8-1.2 1.3-2.1 1.4q-0.1 0-0.2 0c-0.8 0-1.5-0.4-2-1.1v-0.1q0.6 0.5 1.4 0.5 0.1 0 0.2 0c0.9 0 1.6-0.5 2.1-1.3 0.5-0.8 0.8-2 1-3.2 0.3-1.3 0.4-2.7 0.4-4.2 0.1-1.4 0.1-2.8 0.1-4.1l-0.1-51.2c0-1.3 0-2.6-0.1-3.9 0-1.2-0.1-2.3-0.3-3.3q-0.3-1.4-1-2.3m-7.6-17.2q2.3 0 5 0.4c4 0.6 7.3 1.7 9.9 3 2.6 1.3 4.7 2.8 6.2 4.5q0.2 0.2 0.4 0.4c-1.5-1.6-3.5-3-6-4.3-2.6-1.3-5.9-2.3-9.9-3q-2.7-0.4-5-0.4-3 0-5.4 0.6c-2.8 0.7-5 2-6.8 3.5-1.8 1.5-3 3.2-3.9 4.8-1 1.7-1.5 3.3-1.9 4.4-0.3 1.2-0.6 3-0.8 5.4-0.3 2.3-0.4 5.2-0.6 8.5-0.1 3.2-0.2 6.9-0.2 10.8-0.1 3.9-0.1 8-0.1 12.3 0 4.3-0.1 8.4-0.1 12.3 0 4 0 7.7 0 11 0.1 3.4 0.2 6.5 0.4 9.1 0.2 2.7 0.5 4.9 0.9 6.6 0.6 2.4 1.5 4.7 2.7 6.9q1.3 2.1 3 4c-1.4-1.4-2.6-3-3.6-4.7-1.2-2.1-2.1-4.5-2.7-6.8-0.4-1.7-0.7-3.9-0.9-6.6-0.2-2.6-0.3-5.7-0.3-9.1-0.1-3.4-0.1-7.1-0.1-11 0-3.9 0.1-8.1 0.1-12.3 0-4.3 0-8.5 0.1-12.4 0-3.9 0.1-7.5 0.3-10.8 0.1-3.2 0.2-6.1 0.5-8.4 0.2-2.4 0.5-4.2 0.8-5.4 0.4-1.2 1-2.7 1.9-4.4 0.9-1.6 2.2-3.4 3.9-4.9 1.8-1.4 4-2.7 6.9-3.4q2.3-0.6 5.3-0.6m-92-12.7l62.9 9.7v0.6l-62.3-9.7-1.1 62h-0.6l1.1-62.6m36 55c0.7 0.6 1.3 1.4 1.6 2.4 0.4 0.9 0.6 2 0.7 3.1 0.2 1.1 0.2 2.3 0.2 3.3 0 0.4 0 2.5-0.1 5.4 0 3-0.1 6.8-0.1 10.7-0.1 4-0.2 8.1-0.2 11.4-0.1 3.4-0.1 6.1-0.1 7.3q0 1.7-0.4 3.3-0.3 1.5-0.9 2.7-0.7 1.2-1.6 1.9-1 0.7-2.2 0.8-0.1 0-0.2 0c-0.8 0-1.4-0.3-2-0.8q-0.5-0.4-0.9-0.9c0.1 0.1 0.2 0.2 0.3 0.3 0.6 0.5 1.2 0.7 2 0.7q0.1 0 0.2 0 1.2 0 2.2-0.7 0.9-0.7 1.6-1.9 0.6-1.2 1-2.8 0.3-1.5 0.3-3.3c0-1.2 0.1-3.8 0.1-7.2 0-3.4 0.1-7.4 0.2-11.4 0-3.9 0.1-7.8 0.1-10.7 0.1-3 0.1-5 0.1-5.4 0-1.1 0-2.2-0.1-3.3-0.2-1.1-0.4-2.2-0.8-3.1q-0.4-1.1-1-1.8m2.9-18.9q1.7 0 3.4 0.2 2.7 0.2 4.9 0.9 2.3 0.6 4.2 1.6 1.9 0.9 3.5 2.3 1 0.8 1.8 1.8-0.6-0.6-1.2-1.2-1.6-1.3-3.5-2.3-1.9-1-4.2-1.6-2.3-0.6-4.9-0.9-1.7-0.2-3.4-0.2-0.6 0-1.1 0.1-2.2 0-4.2 0.5-2 0.5-3.8 1.4-1.8 0.9-3.3 2.4v-1.1q1.3-1.2 2.8-2 1.7-0.9 3.7-1.3 2-0.5 4.2-0.6 0.6 0 1.1 0m-40.5 44.4l28.8 0.1c0 0.1 0 0.3 0 0.6l-28.2-0.1c-0.1 0.3-0.2 1.7-0.3 3.9-0.1 2.1-0.1 4.9 0 8.1 0.1 3.1 0.4 6.5 0.9 9.7 0.6 3.2 1.4 6.1 2.6 8.5q1.5 2.6 3.4 4.9-2.3-2.5-3.9-5.6c-1.3-2.3-2.1-5.3-2.7-8.5-0.5-3.2-0.8-6.5-0.9-9.7-0.1-3.1 0-5.9 0-8.1 0.1-2.1 0.2-3.5 0.3-3.8"/>
	</g>
</svg>